<svg xmlns="http://www.w3.org/2000/svg" width="128" height="128" viewBox="0 0 128 128" role="img"
    aria-label="TravelTrucks favicon">
    <!-- Transparent background -->
    <rect width="128" height="128" fill="none" />

    <!-- Camper body -->
    <g transform="translate(6,18)">
        <!-- Main body -->
        <rect x="4" y="18" rx="10" ry="10" width="100" height="46" fill="#FFFFFF" />
        <rect x="4" y="18" rx="10" ry="10" width="100" height="46" fill-opacity="0" stroke="#1F2933" stroke-width="3" />

        <!-- Roof pop-top -->
        <rect x="18" y="2" rx="6" ry="6" width="64" height="18" fill="#E63946" />
        <rect x="18" y="2" rx="6" ry="6" width="64" height="18" fill-opacity="0" stroke="#1F2933" stroke-width="2" />

        <!-- Window -->
        <rect x="14" y="26" rx="3" ry="3" width="36" height="20" fill="#F5F5F5" stroke="#1F2933" stroke-width="2" />
        <rect x="56" y="26" rx="2" ry="2" width="26" height="20" fill="#F5F5F5" stroke="#1F2933" stroke-width="2" />

        <!-- Door accent (red) -->
        <rect x="86" y="28" rx="2" ry="2" width="12" height="18" fill="#E63946" />
        <circle cx="96" cy="37" r="1.8" fill="#1F2933" />

        <!-- Wheel arches -->
        <path d="M20 64 a12 12 0 0 1 24 0" fill="none" />
        <path d="M72 64 a12 12 0 0 1 24 0" fill="none" />

        <!-- Wheels -->
        <g>
            <circle cx="28" cy="64" r="10" fill="#1F2933" />
            <circle cx="28" cy="64" r="5" fill="#FFFFFF" />
            <circle cx="84" cy="64" r="10" fill="#1F2933" />
            <circle cx="84" cy="64" r="5" fill="#FFFFFF" />
        </g>

        <!-- Underbody shadow -->
        <rect x="4" y="58" width="100" height="6" rx="3" fill="#E6E6E6" />

        <!-- Simple road line -->
        <rect x="0" y="74" width="112" height="3" fill="#D1D5DB" />
    </g>
</svg>