<svg width="0" height="0"><symbol xmlns="http://www.w3.org/2000/svg" id="_177fc9e5" fill="none" viewBox="0 0 136 16"><path fill="currentColor" d="M135.393 7.187H131.785C131.766 6.965 131.688 6.773 131.55 6.612 131.413 6.451 131.235 6.328 131.018 6.243 130.804 6.153 130.568 6.108 130.307 6.108 129.971 6.108 129.682 6.169 129.441 6.293 129.199 6.416 129.081 6.591 129.086 6.818 129.081 6.979 129.15 7.128 129.292 7.266 129.438 7.403 129.72 7.509 130.137 7.585L132.353 7.983C133.47 8.187 134.301 8.53 134.846 9.013 135.395 9.491 135.672 10.133 135.677 10.937 135.672 11.714 135.44 12.389 134.981 12.962 134.526 13.53 133.903 13.97 133.113 14.283 132.327 14.59 131.429 14.744 130.421 14.744 128.754 14.744 127.45 14.403 126.508 13.722 125.57 13.04 125.047 12.14 124.938 11.023H128.83C128.882 11.368 129.053 11.636 129.341 11.825 129.635 12.01 130.004 12.102 130.449 12.102 130.809 12.102 131.105 12.041 131.337 11.918 131.574 11.795 131.695 11.619 131.699 11.392 131.695 11.184 131.59 11.018 131.387 10.895 131.188 10.772 130.875 10.672 130.449 10.597L128.518 10.256C127.405 10.062 126.572 9.692 126.018 9.148 125.464 8.603 125.189 7.902 125.194 7.045 125.189 6.288 125.388 5.646 125.79 5.121 126.197 4.59 126.777 4.188 127.53 3.913 128.288 3.634 129.185 3.494 130.222 3.494 131.799 3.494 133.042 3.821 133.951 4.474 134.865 5.128 135.345 6.032 135.393 7.187ZM116.415 11.96 116.443 7.301H116.955L119.597 3.636H124L119.568 9.347H118.46L116.415 11.96ZM112.892 14.546V0H116.813V14.546H112.892ZM119.625 14.546 117.125 10.227 119.682 7.443 124.114 14.546H119.625ZM105.619 14.744C104.435 14.744 103.422 14.51 102.579 14.041 101.736 13.568 101.09 12.91 100.64 12.067 100.19 11.219 99.965 10.237 99.965 9.119 99.965 8.002 100.19 7.022 100.64 6.179 101.09 5.331 101.736 4.673 102.579 4.204 103.422 3.731 104.435 3.494 105.619 3.494 106.689 3.494 107.615 3.688 108.396 4.077 109.182 4.46 109.79 5.005 110.221 5.71 110.652 6.411 110.87 7.235 110.875 8.182H107.238C107.186 7.609 107.02 7.173 106.741 6.875 106.466 6.572 106.111 6.42 105.676 6.42 105.335 6.42 105.036 6.52 104.781 6.719 104.525 6.913 104.326 7.209 104.184 7.606 104.042 7.999 103.971 8.494 103.971 9.091 103.971 9.687 104.042 10.185 104.184 10.582 104.326 10.975 104.525 11.271 104.781 11.47 105.036 11.664 105.335 11.761 105.676 11.761 105.964 11.761 106.22 11.695 106.443 11.562 106.665 11.425 106.845 11.226 106.982 10.966 107.125 10.701 107.21 10.379 107.238 10H110.875C110.86 10.961 110.64 11.799 110.214 12.514 109.788 13.224 109.184 13.774 108.403 14.162 107.626 14.55 106.698 14.744 105.619 14.744ZM94.049 9.773V3.636H97.969V14.545H94.248V12.472H94.134C93.897 13.168 93.483 13.712 92.891 14.105 92.299 14.493 91.596 14.688 90.782 14.688 90.019 14.688 89.352 14.512 88.779 14.162 88.211 13.812 87.768 13.329 87.451 12.713 87.138 12.098 86.98 11.392 86.975 10.597V3.636H90.895V9.773C90.9 10.313 91.037 10.736 91.307 11.044 91.582 11.352 91.965 11.506 92.458 11.506 92.785 11.506 93.066 11.437 93.303 11.3 93.545 11.158 93.729 10.959 93.857 10.703 93.99 10.443 94.054 10.133 94.049 9.773ZM77.903 14.545V3.636H81.71V5.71H81.823C82.022 4.943 82.337 4.382 82.768 4.027 83.204 3.672 83.713 3.494 84.295 3.494 84.466 3.494 84.634 3.508 84.799 3.537 84.97 3.561 85.133 3.596 85.289 3.643V6.989C85.095 6.922 84.856 6.873 84.572 6.839 84.288 6.806 84.044 6.79 83.841 6.79 83.457 6.79 83.111 6.877 82.804 7.053 82.501 7.223 82.261 7.464 82.086 7.777 81.911 8.085 81.823 8.447 81.823 8.864V14.545H77.903ZM64.451 3.182V0H77.093V3.182H72.718V14.546H68.826V3.182H64.451Z" class="last"/><path fill="currentColor" d="M62.508 0V14.546H58.587V0H62.508ZM51.247 14.744C50.082 14.744 49.078 14.522 48.235 14.077 47.397 13.627 46.751 12.983 46.296 12.145 45.847 11.302 45.622 10.294 45.622 9.119 45.622 7.992 45.849 7.008 46.304 6.165 46.758 5.322 47.4 4.666 48.228 4.197 49.057 3.729 50.035 3.494 51.161 3.494 51.985 3.494 52.731 3.622 53.399 3.878 54.066 4.133 54.637 4.505 55.11 4.993 55.584 5.476 55.948 6.063 56.204 6.754 56.46 7.445 56.588 8.224 56.588 9.091V10H46.843V7.841H52.98C52.975 7.528 52.894 7.254 52.738 7.017 52.587 6.776 52.381 6.588 52.12 6.456 51.865 6.319 51.573 6.25 51.247 6.25 50.929 6.25 50.638 6.319 50.373 6.456 50.108 6.588 49.895 6.773 49.734 7.01 49.578 7.247 49.495 7.524 49.485 7.841V10.17C49.485 10.521 49.559 10.833 49.706 11.108 49.852 11.383 50.063 11.598 50.338 11.754 50.612 11.911 50.944 11.989 51.332 11.989 51.602 11.989 51.848 11.951 52.071 11.875 52.298 11.799 52.492 11.69 52.653 11.548 52.814 11.402 52.932 11.226 53.008 11.023H56.588C56.465 11.78 56.173 12.438 55.714 12.997 55.255 13.551 54.646 13.982 53.889 14.29 53.136 14.593 52.255 14.744 51.247 14.744ZM44.836 3.636 41.172 14.545H36.626L32.961 3.636H37.081L38.842 10.852H38.956L40.717 3.636H44.836ZM25.056 14.716C24.36 14.716 23.745 14.602 23.209 14.375 22.679 14.143 22.263 13.793 21.959 13.324 21.656 12.855 21.505 12.259 21.505 11.534 21.505 10.937 21.607 10.428 21.81 10.007 22.014 9.581 22.298 9.233 22.663 8.963 23.027 8.693 23.451 8.487 23.934 8.345 24.422 8.203 24.947 8.111 25.511 8.068 26.121 8.021 26.611 7.964 26.981 7.898 27.355 7.827 27.625 7.73 27.79 7.606 27.956 7.479 28.039 7.311 28.039 7.102V7.074C28.039 6.79 27.93 6.572 27.712 6.42 27.495 6.269 27.215 6.193 26.874 6.193 26.5 6.193 26.195 6.276 25.958 6.442 25.726 6.603 25.586 6.851 25.539 7.187H21.931C21.978 6.525 22.189 5.914 22.563 5.355 22.942 4.792 23.494 4.342 24.218 4.006 24.942 3.665 25.847 3.494 26.931 3.494 27.712 3.494 28.413 3.587 29.033 3.771 29.654 3.951 30.182 4.204 30.617 4.531 31.053 4.853 31.384 5.232 31.611 5.668 31.843 6.098 31.959 6.567 31.959 7.074V14.545H28.295V13.011H28.209C27.992 13.419 27.727 13.748 27.414 13.999 27.106 14.25 26.754 14.432 26.356 14.545 25.963 14.659 25.53 14.716 25.056 14.716ZM26.334 12.244C26.633 12.244 26.912 12.183 27.173 12.06 27.438 11.937 27.653 11.759 27.819 11.527 27.985 11.295 28.067 11.013 28.067 10.682V9.773C27.963 9.815 27.852 9.856 27.734 9.893 27.62 9.931 27.497 9.967 27.364 10 27.236 10.033 27.099 10.064 26.952 10.092 26.81 10.121 26.661 10.147 26.505 10.17 26.202 10.218 25.953 10.296 25.759 10.405 25.57 10.509 25.428 10.639 25.333 10.795 25.243 10.947 25.198 11.117 25.198 11.307 25.198 11.61 25.305 11.842 25.518 12.003 25.731 12.164 26.003 12.244 26.334 12.244ZM13.452 14.545V3.636H17.259V5.71H17.373C17.572 4.943 17.886 4.382 18.317 4.027 18.753 3.672 19.262 3.494 19.844 3.494 20.015 3.494 20.183 3.508 20.349 3.537 20.519 3.561 20.682 3.596 20.839 3.643V6.989C20.644 6.922 20.405 6.873 20.121 6.839 19.837 6.806 19.593 6.79 19.39 6.79 19.006 6.79 18.661 6.877 18.353 7.053 18.05 7.223 17.811 7.464 17.635 7.777 17.46 8.085 17.373 8.447 17.373 8.864V14.545H13.452ZM0 3.182V0H12.642V3.182H8.267V14.546H4.375V3.182H0Z" class="first"/></symbol></svg>